<?xml version="1.0" encoding="UTF-8" standalone="no"?>
<svg
   viewBox="0 0 640 640"
   version="1.1"
   id="svg1"
   sodipodi:docname="gears-solid.svg"
   inkscape:version="1.4.2 (ebf0e940d0, 2025-05-08)"
   xmlns:inkscape="http://www.inkscape.org/namespaces/inkscape"
   xmlns:sodipodi="http://sodipodi.sourceforge.net/DTD/sodipodi-0.dtd"
   xmlns="http://www.w3.org/2000/svg"
   xmlns:svg="http://www.w3.org/2000/svg">
  <defs
     id="defs1" />
  <sodipodi:namedview
     id="namedview1"
     pagecolor="#505050"
     bordercolor="#eeeeee"
     borderopacity="1"
     inkscape:showpageshadow="0"
     inkscape:pageopacity="0"
     inkscape:pagecheckerboard="0"
     inkscape:deskcolor="#505050"
     inkscape:zoom="1.4546875"
     inkscape:cx="319.65628"
     inkscape:cy="320.34372"
     inkscape:window-width="3426"
     inkscape:window-height="1401"
     inkscape:window-x="0"
     inkscape:window-y="0"
     inkscape:window-maximized="1"
     inkscape:current-layer="svg1" />
  <!--!Font Awesome Free 7.0.0 by @fontawesome - https://fontawesome.com License - https://fontawesome.com/license/free Copyright 2025 Fonticons, Inc.-->
  <path
     d="m 415.9,274.5 c 12.2,-3.3 25,2.5 30.5,13.8 l 18.6,37.6 c 10.3,1.4 20.4,4.2 29.9,8.1 l 35,-23.3 c 10.5,-7 24.4,-5.6 33.3,3.3 l 19.2,19.2 c 8.9,8.9 10.3,22.9 3.3,33.3 l -23.3,34.9 c 1.9,4.7 3.6,9.6 5,14.7 1.4,5.1 2.3,10.1 3,15.2 l 37.7,18.6 c 11.3,5.6 17.1,18.4 13.8,30.5 l -7,26.2 c -3.3,12.1 -14.6,20.3 -27.2,19.5 l -42,-2.7 c -6.3,8.1 -13.6,15.6 -21.9,22 l 2.7,41.9 c 0.8,12.6 -7.4,24 -19.5,27.2 l -26.2,7 c -12.2,3.3 -24.9,-2.5 -30.5,-13.8 l -18.6,-37.6 c -10.3,-1.4 -20.4,-4.2 -29.9,-8.1 l -35,23.3 c -10.5,7 -24.4,5.6 -33.3,-3.3 L 314.3,562.8 C 305.4,553.9 304,540 311,529.5 l 23.3,-35 c -1.9,-4.7 -3.6,-9.6 -5,-14.7 -1.4,-5.1 -2.3,-10.2 -3,-15.2 L 288.6,446 c -11.3,-5.6 -17,-18.4 -13.8,-30.5 l 7,-26.2 c 3.3,-12.1 14.6,-20.3 27.2,-19.5 l 41.9,2.7 c 6.3,-8.1 13.6,-15.6 21.9,-22 l -2.7,-41.8 c -0.8,-12.6 7.4,-24 19.5,-27.2 l 26.2,-7 z M 448.4,404 c -24.3,0 -44,19.7 -43.9,44.1 0,24.3 19.7,43.9 44,43.9 24.3,0 44,-19.7 44,-44 -0.1,-24.4 -19.8,-44 -44.1,-44 z M 224.9,18.5 l 26.2,7 c 12.1,3.3 20.3,14.7 19.5,27.2 l -2.7,41.8 c 8.3,6.4 15.6,13.8 21.9,22 l 42,-2.7 c 12.5,-0.8 23.9,7.4 27.2,19.5 l 7,26.2 c 3.2,12.1 -2.5,24.9 -13.8,30.5 l -37.7,18.6 c -0.7,5.1 -1.7,10.2 -3,15.2 -1.3,5 -3.1,10 -5,14.7 l 23.3,35 c 7,10.5 5.6,24.4 -3.3,33.3 L 307.3,326 c -8.9,8.9 -22.8,10.3 -33.3,3.3 L 239,306 c -9.5,3.9 -19.6,6.7 -29.9,8.1 l -18.6,37.6 c -5.6,11.3 -18.4,17 -30.5,13.8 l -26.2,-7 c -12.2,-3.3 -20.3,-14.7 -19.5,-27.2 l 2.7,-41.9 c -8.3,-6.4 -15.6,-13.8 -21.9,-22 l -42,2.7 c -12.5,0.8 -23.9,-7.4 -27.2,-19.5 l -7,-26.2 c -3.2,-12.1 2.5,-24.9 13.8,-30.5 l 37.7,-18.6 c 0.7,-5.1 1.7,-10.1 3,-15.2 1.4,-5.1 3,-10 5,-14.7 L 55.1,110.5 C 48.1,100 49.5,86.1 58.4,77.2 L 77.6,58 c 8.9,-8.9 22.8,-10.3 33.3,-3.3 l 35,23.3 c 9.5,-3.9 19.6,-6.7 29.9,-8.1 L 194.4,32.3 C 200,21 212.7,15.3 224.9,18.5 Z M 192.4,148 c -24.3,0 -44,19.7 -44,44 0,24.3 19.7,44 44,44 24.3,0 44,-19.7 44,-44 0,-24.3 -19.7,-44 -44,-44 z"
     id="path1"
     style="fill:#ffffff" />
</svg>
