<?xml version="1.0" encoding="UTF-8" standalone="no"?>
<svg
   viewBox="0 0 640 640"
   version="1.1"
   id="svg1"
   sodipodi:docname="link-slash.svg"
   inkscape:version="1.4.2 (ebf0e940d0, 2025-05-08)"
   xmlns:inkscape="http://www.inkscape.org/namespaces/inkscape"
   xmlns:sodipodi="http://sodipodi.sourceforge.net/DTD/sodipodi-0.dtd"
   xmlns="http://www.w3.org/2000/svg"
   xmlns:svg="http://www.w3.org/2000/svg">
  <defs
     id="defs1" />
  <sodipodi:namedview
     id="namedview1"
     pagecolor="#505050"
     bordercolor="#eeeeee"
     borderopacity="1"
     inkscape:showpageshadow="0"
     inkscape:pageopacity="0"
     inkscape:pagecheckerboard="0"
     inkscape:deskcolor="#505050"
     inkscape:zoom="1.88125"
     inkscape:cx="320"
     inkscape:cy="320"
     inkscape:window-width="3426"
     inkscape:window-height="1401"
     inkscape:window-x="0"
     inkscape:window-y="0"
     inkscape:window-maximized="1"
     inkscape:current-layer="svg1" />
  <!--!Font Awesome Free 7.0.0 by @fontawesome - https://fontawesome.com License - https://fontawesome.com/license/free Copyright 2025 Fonticons, Inc.-->
  <path
     d="M73 39.1C63.6 29.7 48.4 29.7 39.1 39.1C29.8 48.5 29.7 63.7 39 73.1L567 601.1C576.4 610.5 591.6 610.5 600.9 601.1C610.2 591.7 610.3 576.5 600.9 567.2L478.9 445.2C483.1 441.8 487.2 438.1 491 434.3L562.1 363.2C591.4 333.9 607.9 294.1 607.9 252.6C607.9 166.2 537.9 96.1 451.4 96.1C414.1 96.1 378.3 109.4 350.1 133.3C370.4 143.4 388.8 156.8 404.6 172.8C418.7 164.5 434.8 160.1 451.4 160.1C502.5 160.1 543.9 201.5 543.9 252.6C543.9 277.1 534.2 300.6 516.8 318L445.7 389.1C441.8 393 437.6 396.5 433.1 399.6L385.6 352.1C402.1 351.2 415.3 337.7 415.8 321C415.8 319.7 415.8 318.4 415.8 317.1C415.8 230.8 345.9 160.2 259.3 160.2C240.1 160.2 221.4 163.7 203.8 170.4L73 39.1zM257.9 224C258.5 224 259 224 259.6 224C274.7 224 289.1 227.7 301.7 234.2C303.5 235.4 305.3 236.5 307.2 237.3C334 253.6 352 283.2 352 316.9C352 317.3 352 317.7 352 318.1L257.9 224zM378.2 480L224 325.8C225.2 410.4 293.6 478.7 378.1 479.9zM171.7 273.5L126.4 228.2L77.8 276.8C48.5 306.1 32 345.9 32 387.4C32 473.8 102 543.9 188.5 543.9C225.7 543.9 261.6 530.6 289.8 506.7C269.5 496.6 251 483.2 235.2 467.2C221.2 475.4 205.1 479.8 188.5 479.8C137.4 479.8 96 438.4 96 387.3C96 362.8 105.7 339.3 123.1 321.9L171.7 273.3z"
     id="path1"
     style="fill:#ffffff" />
</svg>
